<?xml version="1.0" encoding="UTF-8"?>
<svg width="80px" height="80px" viewBox="0 0 80 80" version="1.1" xmlns="http://www.w3.org/2000/svg" xmlns:xlink="http://www.w3.org/1999/xlink">
    <title>Icons / Illustrative / phone</title>
    <g id="Icons-/-Illustrative-/-phone" stroke="none" stroke-width="1" fill="none" fill-rule="evenodd">
        <g id="Oval" stroke="#3B3B47">
            <circle cx="40" cy="40" r="39.5"></circle>
        </g>
        <g id="Group-Copy-6" transform="translate(25.500000, 14.500000)" stroke="#3B3B47" stroke-linejoin="round">
            <path d="M4.46153846,51 C1.99653846,51 0,49.0154348 0,46.5652174 L0,4.43478261 C0,1.98678261 1.99653846,0 4.46153846,0 L24.5384615,0 C27.0012308,0 29,1.98678261 29,4.43478261 L29,46.5652174 C29,49.0154348 27.0012308,51 24.5384615,51 L4.46153846,51 Z" id="Path" stroke-linecap="round"></path>
            <line x1="0" y1="8" x2="29" y2="8" id="Stroke-252" stroke-linecap="round"></line>
            <line x1="0" y1="42" x2="29" y2="42" id="Stroke-252-Copy-2" stroke-linecap="round"></line>
            <line x1="11" y1="4" x2="17" y2="4" id="Stroke-252" stroke-linecap="round"></line>
            <path d="M16,46.5 C16,47.328 15.328,48 14.5,48 C13.672,48 13,47.328 13,46.5 C13,45.672 13.672,45 14.5,45 C15.328,45 16,45.672 16,46.5 L16,46.5 Z" id="Stroke-253"></path>
        </g>
    </g>
</svg>