<?xml version="1.0" encoding="UTF-8"?>
<svg width="16px" height="16px" viewBox="0 0 16 16" version="1.1" xmlns="http://www.w3.org/2000/svg" xmlns:xlink="http://www.w3.org/1999/xlink">
    <title>Icons / Gen / q</title>
    <g id="Icons-/-Gen-/-q" stroke="none" stroke-width="1" fill="none" fill-rule="evenodd">
        <path d="M15.475,8 C15.475,12.12945 12.12815,15.475 8,15.475 C3.8712,15.475 0.525,12.12945 0.525,8 C0.525,3.8725 3.8712,0.525 8,0.525 C12.12815,0.525 15.475,3.8725 15.475,8 L15.475,8 Z" id="Stroke-5470" stroke="#00000F" stroke-linecap="round" stroke-linejoin="round"></path>
        <path d="M5.725,6.32857143 C5.725,5.0984 6.7442,4.1 8,4.1 C9.2558,4.1 10.275,5.0984 10.275,6.32857143 C10.275,7.55948571 9.2558,8.55714286 8,8.55714286 L8,9.3" id="Stroke-113" stroke="#00000F" stroke-linecap="round" stroke-linejoin="round"></path>
        <path d="M8.65,11.575 C8.65,11.9338925 8.35889254,12.225 8,12.225 C7.64110746,12.225 7.35,11.9338925 7.35,11.575 C7.35,11.2161075 7.64110746,10.925 8,10.925 C8.35889254,10.925 8.65,11.2161075 8.65,11.575 Z" id="Stroke-114" fill="#00000F" fill-rule="nonzero"></path>
    </g>
</svg>