<svg xmlns="http://www.w3.org/2000/svg" xmlns:xlink="http://www.w3.org/1999/xlink" width="414" height="736" viewBox="0 0 414 736"><defs><style>.cls-1{fill:none;}.cls-2{isolation:isolate;}.cls-3{clip-path:url(#clip-path);}.cls-4{fill:url(#linear-gradient);}.cls-19,.cls-5,.cls-6{mix-blend-mode:multiply;}.cls-34,.cls-5,.cls-52,.cls-6{opacity:0.5;}.cls-5{fill:url(#linear-gradient-2);}.cls-6{fill:url(#linear-gradient-3);}.cls-7{fill:url(#linear-gradient-4);}.cls-8{fill:url(#linear-gradient-5);}.cls-9{fill:url(#linear-gradient-6);}.cls-10{fill:url(#linear-gradient-7);}.cls-11{fill:#202722;}.cls-12{fill:url(#linear-gradient-8);}.cls-13{fill:url(#linear-gradient-9);}.cls-14{fill:url(#linear-gradient-10);}.cls-15{fill:url(#linear-gradient-11);}.cls-16{fill:url(#linear-gradient-12);}.cls-17{fill:url(#linear-gradient-13);}.cls-18{fill:#ebafbb;}.cls-19{fill:#b57688;opacity:0.8;}.cls-20{fill:url(#linear-gradient-14);}.cls-21{fill:url(#linear-gradient-15);}.cls-22{fill:url(#linear-gradient-16);}.cls-23{fill:#c68193;}.cls-24{fill:#012a5b;}.cls-25{fill:#8e5167;}.cls-26{fill:url(#linear-gradient-17);}.cls-27{fill:url(#linear-gradient-18);}.cls-28{fill:url(#linear-gradient-19);}.cls-29{fill:url(#linear-gradient-20);}.cls-30{fill:url(#linear-gradient-21);}.cls-31{fill:url(#linear-gradient-22);}.cls-32{fill:url(#linear-gradient-23);}.cls-33{fill:url(#linear-gradient-24);}.cls-34{fill:url(#linear-gradient-25);}.cls-35{fill:url(#linear-gradient-26);}.cls-36{fill:url(#linear-gradient-27);}.cls-37{fill:url(#linear-gradient-28);}.cls-38{fill:url(#linear-gradient-29);}.cls-39{fill:url(#linear-gradient-30);}.cls-40{fill:url(#linear-gradient-31);}.cls-41{fill:url(#linear-gradient-32);}.cls-42{fill:url(#linear-gradient-33);}.cls-43{fill:url(#linear-gradient-34);}.cls-44{fill:url(#radial-gradient);}.cls-45{fill:url(#linear-gradient-35);}.cls-46{fill:url(#radial-gradient-2);}.cls-47{fill:url(#linear-gradient-36);}.cls-48{fill:url(#linear-gradient-37);}.cls-49{fill:url(#linear-gradient-38);}.cls-50{fill:url(#linear-gradient-39);}.cls-51{fill:url(#linear-gradient-40);}.cls-52{fill:url(#linear-gradient-41);}</style><clipPath id="clip-path"><rect class="cls-1" width="414" height="736"/></clipPath><linearGradient id="linear-gradient" x1="-155.27284" y1="504.40136" x2="443.23398" y2="201.55779" gradientUnits="userSpaceOnUse"><stop offset="0.06738" stop-color="#ffdde2"/><stop offset="0.1317" stop-color="#f9dbe2"/><stop offset="0.21726" stop-color="#e8d5e1"/><stop offset="0.31475" stop-color="#cdcbdf"/><stop offset="0.42112" stop-color="#a6bedc"/><stop offset="0.53338" stop-color="#75add9"/><stop offset="0.60069" stop-color="#54a1d7"/><stop offset="0.68935" stop-color="#4689cf"/><stop offset="0.80403" stop-color="#3871c7"/><stop offset="0.91051" stop-color="#3063c3"/><stop offset="1" stop-color="#2d5ec1"/></linearGradient><linearGradient id="linear-gradient-2" x1="102.80575" y1="527.59239" x2="432.07885" y2="316.20493" gradientTransform="translate(-136.62959 -32.39852) rotate(-1.73395)" gradientUnits="userSpaceOnUse"><stop offset="0.02771" stop-color="#2d5ec1"/><stop offset="0.04174" stop-color="#2d5ec1" stop-opacity="0.93839"/><stop offset="0.09746" stop-color="#2d5ec1" stop-opacity="0.71946"/><stop offset="0.15786" stop-color="#2d5ec1" stop-opacity="0.52525"/><stop offset="0.22222" stop-color="#2d5ec1" stop-opacity="0.36198"/><stop offset="0.29183" stop-color="#2d5ec1" stop-opacity="0.22923"/><stop offset="0.36866" stop-color="#2d5ec1" stop-opacity="0.12689"/><stop offset="0.45657" stop-color="#2d5ec1" stop-opacity="0.05472"/><stop offset="0.5652" stop-color="#2d5ec1" stop-opacity="0.01257"/><stop offset="0.75672" stop-color="#2d5ec1" stop-opacity="0"/></linearGradient><linearGradient id="linear-gradient-3" x1="3840.61292" y1="5221.5078" x2="3524.16492" y2="5445.68412" gradientTransform="matrix(-0.8328, -0.55358, 0.55358, -0.8328, 450.11347, 6858.68952)" xlink:href="#linear-gradient-2"/><linearGradient id="linear-gradient-4" x1="184.40873" y1="619.06076" x2="194.61936" y2="605.5286" gradientTransform="matrix(0.99987, -0.01594, 0.01594, 0.99987, -78.16886, -20.90846)" gradientUnits="userSpaceOnUse"><stop offset="0.02465" stop-color="#f0c4b4"/><stop offset="0.28032" stop-color="#f5cfba"/><stop offset="0.59968" stop-color="#fad8c3"/><stop offset="0.82248" stop-color="#ffe2cd"/></linearGradient><linearGradient id="linear-gradient-5" x1="94.02609" y1="599.19721" x2="88.09158" y2="519.25654" gradientUnits="userSpaceOnUse"><stop offset="0.2675" stop-color="#f0c4b4"/><stop offset="0.51113" stop-color="#fad9c5"/><stop offset="0.68374" stop-color="#ffe2cd"/></linearGradient><linearGradient id="linear-gradient-6" x1="76.82169" y1="601.43538" x2="33.59605" y2="479.23833" gradientUnits="userSpaceOnUse"><stop offset="0.20342" stop-color="#f0c4b4"/><stop offset="0.51727" stop-color="#fad9c5"/><stop offset="0.73963" stop-color="#ffe2cd"/></linearGradient><linearGradient id="linear-gradient-7" x1="145.29485" y1="511.55613" x2="194.96042" y2="461.89055" gradientUnits="userSpaceOnUse"><stop offset="0.24637" stop-color="#ebafbb"/><stop offset="0.50869" stop-color="#f4c3cc"/><stop offset="0.88919" stop-color="#ffdde2"/></linearGradient><linearGradient id="linear-gradient-8" x1="77.16596" y1="515.20287" x2="124.03911" y2="602.45191" gradientUnits="userSpaceOnUse"><stop offset="0" stop-color="#a4c99e" stop-opacity="0"/><stop offset="0.02914" stop-color="#a5c99e" stop-opacity="0.06097"/><stop offset="0.22786" stop-color="#a8c99e" stop-opacity="0.45648"/><stop offset="0.36904" stop-color="#aac99e" stop-opacity="0.70442"/><stop offset="0.43848" stop-color="#abc99e" stop-opacity="0.8"/><stop offset="0.47717" stop-color="#aac99e" stop-opacity="0.64883"/><stop offset="0.55507" stop-color="#a7c99e" stop-opacity="0.37167"/><stop offset="0.62217" stop-color="#a5c99e" stop-opacity="0.1697"/><stop offset="0.67503" stop-color="#a4c99e" stop-opacity="0.04572"/><stop offset="0.70711" stop-color="#a4c99e" stop-opacity="0"/></linearGradient><linearGradient id="linear-gradient-9" x1="26.85921" y1="565.02633" x2="33.88779" y2="551.41307" gradientUnits="userSpaceOnUse"><stop offset="0.1515" stop-color="#fff" stop-opacity="0.4"/><stop offset="0.15643" stop-color="#fff" stop-opacity="0.44691"/><stop offset="0.17196" stop-color="#fff" stop-opacity="0.57391"/><stop offset="0.18803" stop-color="#fff" stop-opacity="0.67341"/><stop offset="0.20465" stop-color="#fff" stop-opacity="0.74418"/><stop offset="0.22217" stop-color="#fff" stop-opacity="0.78633"/><stop offset="0.24207" stop-color="#fff" stop-opacity="0.8"/><stop offset="0.26058" stop-color="#fff" stop-opacity="0.72622"/><stop offset="0.28533" stop-color="#fff" stop-opacity="0.65579"/><stop offset="0.31149" stop-color="#fff" stop-opacity="0.61367"/><stop offset="0.34123" stop-color="#fff" stop-opacity="0.6"/><stop offset="0.3771" stop-color="#fffcf9" stop-opacity="0.64691"/><stop offset="0.49008" stop-color="#fff2e9" stop-opacity="0.77391"/><stop offset="0.60696" stop-color="#ffebdd" stop-opacity="0.87341"/><stop offset="0.72787" stop-color="#ffe6d4" stop-opacity="0.94418"/><stop offset="0.85528" stop-color="#ffe3cf" stop-opacity="0.98633"/><stop offset="1" stop-color="#ffe2cd"/></linearGradient><linearGradient id="linear-gradient-10" x1="144.35253" y1="430.20999" x2="244.78361" y2="550.51805" gradientUnits="userSpaceOnUse"><stop offset="0.39405" stop-color="#2d5ec1"/><stop offset="0.55476" stop-color="#1e4c9d"/><stop offset="0.74529" stop-color="#0e3979"/><stop offset="0.90056" stop-color="#042e63"/><stop offset="1" stop-color="#012a5b"/></linearGradient><linearGradient id="linear-gradient-11" x1="155.27246" y1="647.89439" x2="155.27246" y2="536.62551" gradientUnits="userSpaceOnUse"><stop offset="0.24637" stop-color="#ebafbb"/><stop offset="0.47595" stop-color="#efb8c3"/><stop offset="0.85605" stop-color="#fad2d8"/><stop offset="1" stop-color="#ffdde2"/></linearGradient><linearGradient id="linear-gradient-12" x1="191.44468" y1="470.56555" x2="334.7805" y2="625.40504" gradientUnits="userSpaceOnUse"><stop offset="0.09968" stop-color="#ebafbb"/><stop offset="0.23284" stop-color="#d89ba9"/><stop offset="0.43356" stop-color="#b57688"/></linearGradient><linearGradient id="linear-gradient-13" x1="299.88299" y1="648.63255" x2="299.88299" y2="560.3552" xlink:href="#linear-gradient-11"/><linearGradient id="linear-gradient-14" x1="313.28803" y1="378.54474" x2="231.68777" y2="506.69898" xlink:href="#linear-gradient-10"/><linearGradient id="linear-gradient-15" x1="255.59962" y1="576.97135" x2="255.59962" y2="506.62988" gradientUnits="userSpaceOnUse"><stop offset="0.61325" stop-color="#ebafbb"/><stop offset="0.71856" stop-color="#efb8c3"/><stop offset="0.8929" stop-color="#fad2d8"/><stop offset="0.95893" stop-color="#ffdde2"/></linearGradient><linearGradient id="linear-gradient-16" x1="107.42671" y1="507.14219" x2="194.95519" y2="608.27071" xlink:href="#linear-gradient-10"/><linearGradient id="linear-gradient-17" x1="255.59969" y1="502.84953" x2="255.59969" y2="432.75026" gradientUnits="userSpaceOnUse"><stop offset="0" stop-color="#ebafbb"/><stop offset="0.21367" stop-color="#efb8c3"/><stop offset="0.56743" stop-color="#fad2d8"/><stop offset="0.7014" stop-color="#ffdde2"/></linearGradient><linearGradient id="linear-gradient-18" x1="255.60459" y1="549.14322" x2="255.60459" y2="479.09788" xlink:href="#linear-gradient-17"/><linearGradient id="linear-gradient-19" x1="818.41145" y1="513.37064" x2="818.41145" y2="563.39404" gradientTransform="matrix(-1, 0, 0, 1, 1083.91751, 0)" gradientUnits="userSpaceOnUse"><stop offset="0.23997" stop-color="#ffdde2"/><stop offset="0.32242" stop-color="#fbd4da"/><stop offset="0.45892" stop-color="#f0bac5"/><stop offset="0.51062" stop-color="#ebafbb"/></linearGradient><linearGradient id="linear-gradient-20" x1="247.85891" y1="560.19741" x2="247.85891" y2="527.39043" gradientUnits="userSpaceOnUse"><stop offset="0.18451" stop-color="#ebafbb"/><stop offset="0.28981" stop-color="#efb8c3"/><stop offset="0.46414" stop-color="#fad2d8"/><stop offset="0.53016" stop-color="#ffdde2"/></linearGradient><linearGradient id="linear-gradient-21" x1="228.33268" y1="576.66482" x2="228.33268" y2="551.93116" gradientUnits="userSpaceOnUse"><stop offset="0" stop-color="#ebafbb"/><stop offset="0.1615" stop-color="#efb8c3"/><stop offset="0.42889" stop-color="#fad2d8"/><stop offset="0.53016" stop-color="#ffdde2"/></linearGradient><linearGradient id="linear-gradient-22" x1="206.94324" y1="610.18282" x2="207.07342" y2="571.25983" xlink:href="#linear-gradient-21"/><linearGradient id="linear-gradient-23" x1="198.19338" y1="531.8633" x2="310.19484" y2="605.33409" gradientUnits="userSpaceOnUse"><stop offset="0.0911" stop-color="#ebafbb"/><stop offset="0.27171" stop-color="#e7abb7"/><stop offset="0.46983" stop-color="#da9dab"/><stop offset="0.67549" stop-color="#c68898"/><stop offset="0.80353" stop-color="#b57688"/></linearGradient><linearGradient id="linear-gradient-24" x1="137.10897" y1="597.11599" x2="137.10898" y2="597.11599" gradientTransform="translate(723.92352 421.06184) rotate(86.23189)" gradientUnits="userSpaceOnUse"><stop offset="0.09523" stop-color="#929e70"/><stop offset="0.14011" stop-color="#929e70" stop-opacity="0.87683"/><stop offset="0.28757" stop-color="#929e70" stop-opacity="0.50262"/><stop offset="0.41338" stop-color="#929e70" stop-opacity="0.22987"/><stop offset="0.5112" stop-color="#929e70" stop-opacity="0.06219"/><stop offset="0.56908" stop-color="#929e70" stop-opacity="0"/></linearGradient><linearGradient id="linear-gradient-25" x1="11317.45834" y1="4798.99461" x2="10959.88978" y2="4851.34534" gradientTransform="matrix(0.93545, 0.35346, 0.35346, -0.93545, -12010.63732, 808.19134)" gradientUnits="userSpaceOnUse"><stop offset="0" stop-color="#fff" stop-opacity="0.7"/><stop offset="0.14805" stop-color="#fff" stop-opacity="0.46837"/><stop offset="0.29524" stop-color="#fff" stop-opacity="0.26668"/><stop offset="0.42261" stop-color="#fff" stop-opacity="0.12146"/><stop offset="0.52521" stop-color="#fff" stop-opacity="0.03252"/><stop offset="0.59022" stop-color="#fff" stop-opacity="0"/></linearGradient><linearGradient id="linear-gradient-26" x1="301.08057" y1="456.8801" x2="321.26343" y2="590.01616" gradientUnits="userSpaceOnUse"><stop offset="0" stop-color="#a4c99e" stop-opacity="0"/><stop offset="0.02914" stop-color="#a5c99e" stop-opacity="0.06097"/><stop offset="0.22786" stop-color="#a8c99e" stop-opacity="0.45648"/><stop offset="0.36904" stop-color="#aac99e" stop-opacity="0.70442"/><stop offset="0.43848" stop-color="#abc99e" stop-opacity="0.8"/><stop offset="0.6036" stop-color="#a8c99e" stop-opacity="0.42612"/><stop offset="0.79993" stop-color="#a4c99e" stop-opacity="0"/></linearGradient><linearGradient id="linear-gradient-27" x1="432.96528" y1="596.22861" x2="365.14299" y2="704.95958" gradientTransform="matrix(0.99987, -0.01594, 0.01594, 0.99987, -78.16886, -20.90846)" gradientUnits="userSpaceOnUse"><stop offset="0" stop-color="#f5cfba"/><stop offset="0.08208" stop-color="#f9d4c1"/><stop offset="0.26749" stop-color="#fddaca"/><stop offset="0.52819" stop-color="#ffdccd"/></linearGradient><linearGradient id="linear-gradient-28" x1="273.81217" y1="639.55031" x2="140.1656" y2="637.19646" gradientUnits="userSpaceOnUse"><stop offset="0.02465" stop-color="#f0c4b4"/><stop offset="1" stop-color="#f5cfba"/></linearGradient><linearGradient id="linear-gradient-29" x1="219.54248" y1="668.24648" x2="241.7627" y2="632.2302" gradientTransform="matrix(0.99987, -0.01594, 0.01594, 0.99987, -78.16886, -20.90846)" gradientUnits="userSpaceOnUse"><stop offset="0.21822" stop-color="#f7cfba"/><stop offset="0.37024" stop-color="#f7cfba" stop-opacity="0.54079"/><stop offset="0.55416" stop-color="#f7cfba" stop-opacity="0"/></linearGradient><linearGradient id="linear-gradient-30" x1="204.89" y1="627.73164" x2="282.57913" y2="668.4325" gradientTransform="matrix(0.99987, -0.01594, 0.01594, 0.99987, -78.16886, -20.90846)" gradientUnits="userSpaceOnUse"><stop offset="0.13539" stop-color="#f7cfba"/><stop offset="0.5943" stop-color="#f7cfba" stop-opacity="0"/></linearGradient><linearGradient id="linear-gradient-31" x1="387.47474" y1="693.19527" x2="445.92088" y2="581.78083" gradientTransform="matrix(0.99987, -0.01594, 0.01594, 0.99987, -78.16886, -20.90846)" gradientUnits="userSpaceOnUse"><stop offset="0.25602" stop-color="#f7cfba" stop-opacity="0"/><stop offset="0.28209" stop-color="#f7cfba" stop-opacity="0.03806"/><stop offset="0.32544" stop-color="#f7cfba" stop-opacity="0.14114"/><stop offset="0.38073" stop-color="#f7cfba" stop-opacity="0.30909"/><stop offset="0.44577" stop-color="#f7cfba" stop-opacity="0.54201"/><stop offset="0.51819" stop-color="#f7cfba" stop-opacity="0.83538"/><stop offset="0.55591" stop-color="#f7cfba"/></linearGradient><linearGradient id="linear-gradient-32" x1="207.88896" y1="630.88966" x2="208.12532" y2="656.41665" gradientTransform="matrix(0.99987, -0.01594, 0.01594, 0.99987, -78.16886, -20.90846)" xlink:href="#linear-gradient-9"/><linearGradient id="linear-gradient-33" x1="180.63953" y1="671.94501" x2="202.88299" y2="628.86294" gradientTransform="matrix(0.99987, -0.01594, 0.01594, 0.99987, -78.16886, -20.90846)" gradientUnits="userSpaceOnUse"><stop offset="0.02465" stop-color="#f0c4b4"/><stop offset="0.32726" stop-color="#f5cfba"/></linearGradient><linearGradient id="linear-gradient-34" x1="2939.36351" y1="2283.14017" x2="2953.59692" y2="2255.5723" gradientTransform="translate(-3465.26985 143.55639) rotate(-29.52366)" xlink:href="#linear-gradient-33"/><radialGradient id="radial-gradient" cx="367.09098" cy="699.41508" r="119.02946" gradientTransform="matrix(0.9848, 0.1737, -0.04942, 0.28021, -26.91857, 412.82049)" gradientUnits="userSpaceOnUse"><stop offset="0.29717" stop-color="#f7cfba"/><stop offset="0.29911" stop-color="#f7cfba" stop-opacity="0.9952"/><stop offset="0.44669" stop-color="#f7cfba" stop-opacity="0.64659"/><stop offset="0.5768" stop-color="#f7cfba" stop-opacity="0.36951"/><stop offset="0.68469" stop-color="#f7cfba" stop-opacity="0.16942"/><stop offset="0.76629" stop-color="#f7cfba" stop-opacity="0.04618"/><stop offset="0.81214" stop-color="#f7cfba" stop-opacity="0"/></radialGradient><linearGradient id="linear-gradient-35" x1="488.01077" y1="831.13623" x2="532.85594" y2="787.2157" gradientTransform="matrix(0.99987, -0.01594, 0.01594, 0.99987, -78.16886, -20.90846)" gradientUnits="userSpaceOnUse"><stop offset="0.15587" stop-color="#f7cfba"/><stop offset="0.4014" stop-color="#f7cfba" stop-opacity="0.54079"/><stop offset="0.69845" stop-color="#f7cfba" stop-opacity="0"/></linearGradient><radialGradient id="radial-gradient-2" cx="328.00248" cy="641.38205" r="60.5578" gradientTransform="matrix(-0.94573, -0.32496, 0.26949, -0.78428, 397.32801, 1224.72016)" gradientUnits="userSpaceOnUse"><stop offset="0" stop-color="#f7cfba"/><stop offset="0.24272" stop-color="#f7cfba" stop-opacity="0.54079"/><stop offset="0.53637" stop-color="#f7cfba" stop-opacity="0"/></radialGradient><linearGradient id="linear-gradient-36" x1="343.18372" y1="580.12856" x2="440.12757" y2="684.7084" gradientUnits="userSpaceOnUse"><stop offset="0.17281" stop-color="#f0c4b4"/><stop offset="0.23784" stop-color="#f1c5b5" stop-opacity="0.95581"/><stop offset="0.3509" stop-color="#f2c9b8" stop-opacity="0.83719"/><stop offset="0.49848" stop-color="#f5cfbd" stop-opacity="0.64438"/><stop offset="0.67492" stop-color="#f9d7c4" stop-opacity="0.37722"/><stop offset="0.87374" stop-color="#fee1cc" stop-opacity="0.0409"/><stop offset="0.89673" stop-color="#ffe2cd" stop-opacity="0"/></linearGradient><linearGradient id="linear-gradient-37" x1="103.74884" y1="595.61865" x2="108.56881" y2="590.25559" gradientTransform="matrix(0.99987, -0.01594, 0.01594, 0.99987, -78.16886, -20.90846)" gradientUnits="userSpaceOnUse"><stop offset="0.11686" stop-color="#fff" stop-opacity="0.4"/><stop offset="0.13067" stop-color="#fff" stop-opacity="0.44691"/><stop offset="0.17418" stop-color="#fff" stop-opacity="0.57391"/><stop offset="0.21918" stop-color="#fff" stop-opacity="0.67341"/><stop offset="0.26574" stop-color="#fff" stop-opacity="0.74418"/><stop offset="0.3148" stop-color="#fff" stop-opacity="0.78633"/><stop offset="0.37052" stop-color="#fff" stop-opacity="0.8"/><stop offset="0.44557" stop-color="#fff" stop-opacity="0.72622"/><stop offset="0.5459" stop-color="#fff" stop-opacity="0.65579"/><stop offset="0.65199" stop-color="#fff" stop-opacity="0.61367"/><stop offset="0.77252" stop-color="#fff" stop-opacity="0.6"/><stop offset="0.78491" stop-color="#fffcf9" stop-opacity="0.64691"/><stop offset="0.82393" stop-color="#fff2e9" stop-opacity="0.77391"/><stop offset="0.86428" stop-color="#ffebdd" stop-opacity="0.87341"/><stop offset="0.90603" stop-color="#ffe6d4" stop-opacity="0.94418"/><stop offset="0.95003" stop-color="#ffe3cf" stop-opacity="0.98633"/><stop offset="1" stop-color="#ffe2cd"/></linearGradient><linearGradient id="linear-gradient-38" x1="119.67066" y1="596.43843" x2="141.39662" y2="596.01435" xlink:href="#linear-gradient-11"/><linearGradient id="linear-gradient-39" x1="145.90646" y1="598.31578" x2="172.23136" y2="597.80194" xlink:href="#linear-gradient-11"/><linearGradient id="linear-gradient-40" x1="267.61862" y1="513.45623" x2="299.86609" y2="573.48124" gradientUnits="userSpaceOnUse"><stop offset="0.08834" stop-color="#a4c99e" stop-opacity="0"/><stop offset="0.11161" stop-color="#a5c99e" stop-opacity="0.06097"/><stop offset="0.27029" stop-color="#a8c99e" stop-opacity="0.45648"/><stop offset="0.38303" stop-color="#aac99e" stop-opacity="0.70442"/><stop offset="0.43848" stop-color="#abc99e" stop-opacity="0.8"/><stop offset="0.55671" stop-color="#a9c99e" stop-opacity="0.54134"/><stop offset="0.70337" stop-color="#a6c99e" stop-opacity="0.25048"/><stop offset="0.81194" stop-color="#a5c99e" stop-opacity="0.06891"/><stop offset="0.86954" stop-color="#a4c99e" stop-opacity="0"/></linearGradient><linearGradient id="linear-gradient-41" x1="408.77025" y1="484.13906" x2="574.9039" y2="596.02102" gradientUnits="userSpaceOnUse"><stop offset="0" stop-color="#fff" stop-opacity="0.7"/><stop offset="0.07908" stop-color="#fff" stop-opacity="0.56048"/><stop offset="0.20534" stop-color="#fff" stop-opacity="0.36191"/><stop offset="0.3243" stop-color="#fff" stop-opacity="0.20516"/><stop offset="0.43253" stop-color="#fff" stop-opacity="0.09265"/><stop offset="0.52638" stop-color="#fff" stop-opacity="0.02425"/><stop offset="0.59528" stop-color="#fff" stop-opacity="0"/></linearGradient></defs><g class="cls-2"><g id="Layer_4" data-name="Layer 4"><g class="cls-3"><rect class="cls-4" x="-201.87467" y="-3.66681" width="621.88027" height="748.62676"/><polygon class="cls-5" points="421.156 -11.762 419.161 740.003 201.679 738.451 -78.985 -14.09 421.156 -11.762"/><polygon class="cls-6" points="605.271 -10.432 606.943 764.601 217.581 762.651 217.395 -12.336 605.271 -10.432"/><path class="cls-7" d="M90.55593,574.34521s6.79363-4.75187,14.20164-2.26036,17.52037,10.92662,23.58387,15.74214,8.39487,6.62043,8.39487,6.62043l15.01107,7.58949s-9.477,2.53043-16.54629,2.02911-8.75741-.47441-8.75741-.47441-13.82142-12.40552-19.10047-16.159S90.55593,574.34521,90.55593,574.34521Z"/><path class="cls-8" d="M55.53326,558.44s5.81139-3.77679,13.563,1.01182a255.54386,255.54386,0,0,1,22.9749,16.05887c9.01363,6.91758,16.4114,11.17456,22.00472,15.38356s15.74527,12.72023,15.74527,12.72023-3.41753,2.28032-16.01194-2.96835c-1.42383-.59338-18.04683-15.06289-26.5707-20.14621s-12.334-8.16944-20.40477-13.72049S55.53326,558.44,55.53326,558.44Z"/><path class="cls-9" d="M30.884,564.93486l-3.34773-3.21517a2.51288,2.51288,0,0,1-.5043-2.96489c1.64074-3.15914,6.34515-9.19372,17.54568-6.28035,5.55,1.44363,15.647,8.96091,15.647,8.96091a157.42332,157.42332,0,0,1,25.59851,16.93808c11.66906,9.79185,25.33562,19.70537,25.33562,19.70537a146.33724,146.33724,0,0,1-28.36792-12.519c-13.63721-8.07192-19.68768-18.08766-29.42215-22.07714s-11.88538-2.89982-18.45633-1.02975C30.88294,563.59967,30.884,564.93486,30.884,564.93486Z"/><polygon class="cls-10" points="137.126 515.807 137.126 433.681 217.48 394.321 219.331 523.563 137.126 515.807"/><path class="cls-11" d="M98.95013,516.02626A15.99568,15.99568,0,0,0,95.245,528.36219c.5,3.66643-4.88207,4.53335-2.00514,14.90774.71973,2.59539-1.33708,4.91287-2.00513,6.97438-2.46125,7.59505,2.09231,11.02824-1.17693,17.69749-1.73462,3.53864-3.618,12.03081,1.17693,23.62572,9.73417,23.539,8.32192,15.15386,14.2103,13.077,2.86106-1.00913,3.22185,18.65191,7.49746-.741,3.66155-16.60774,2.78975-31.16676.92248-36.8741-.74708-2.28346-3.43991-8.13554-2.75325-11.46707,2.35385-11.42055,1.08539-14.87687-.78462-19.00519-1.15708-2.55442-2.62053-3.29435-2.1327-6.62876s.56346-5.27128-.64107-7.80154c-1.64293-3.45117-.64377-4.57591-2.08345-7.15629C103.81653,512.00716,100.91292,513.93818,98.95013,516.02626Z"/><path class="cls-12" d="M101.50014,515.89549c-.52312-.25013-4.83848,2.94231-4.359,8.56541.287,3.366,1.34874,5.89825-.93718,8.34746-4.27181,4.57694,3.90129,5.79745-.34872,13.94876-5.5245,10.5957,1.30769,11.50773-2.26668,19.96417-4.33205,10.249-.56559,25.22228,3.53186,29.49409,3.06073,3.191,10.76562,6.24961,10.76562,6.24961-12.20516-20.74879,1.22052-17.61031-6.27694-34.17447a23.61118,23.61118,0,0,1-.35716-17.89176c4.02889-11.30375,1.65011-14.42609.23875-17.39626C95.64966,520.71015,101.93187,516.10192,101.50014,515.89549Z"/><path class="cls-13" d="M32.88384,560.06362a6.31156,6.31156,0,0,0-2.99051,3.29723l-3.79565-3.56561S27.823,556.65136,32.88384,560.06362Z"/><path class="cls-14" d="M203.57349,420.98917v29.90007l-25.16342,8.76045-.06938-27.69007Zm-57.13371,24.78018.00423,25.17532,20.55861-7.2226-.00688-26.85739Zm31.90091,32.46826-.00341,27.85662,25.23621-5.3878v-29.8838Zm-31.90091,9.46507L146.444,512.878l20.55861-4.40142-.00688-26.85738Z"/><polygon class="cls-15" points="120.04 518.508 120.04 610.649 158.918 618.234 190.483 617.652 190.504 503.544 120.04 518.508"/><polygon class="cls-16" points="217.494 394.28 280.565 424.691 280.565 622.227 190.352 611.533 190.472 503.495 217.527 508.631 217.494 394.28"/><polygon class="cls-17" points="280.589 424.684 280.506 610.209 319.26 610.194 319.236 413.61 280.589 424.684"/><path class="cls-18" d="M319.23593,413.60975l7.591,4.56434-.15865,187.93519-7.33467,2.76626S319.23593,414.46226,319.23593,413.60975Z"/><polygon class="cls-19" points="280.567 424.684 319.277 464.322 319.041 601.312 280.562 600.177 280.567 424.684"/><path class="cls-20" d="M256.94184,459.80016l-25.23064-8.8398.00518-29.859L256.94,432.00745Zm0,18.54566-25.22546-7.45166-.00518,29.859,25.24487,5.37383Zm.01244,46.31321-25.24136-4.01434-.00555,29.85758,25.37888,1.86075Z"/><polygon class="cls-21" points="256.946 552.558 254.245 552.281 254.247 525.432 256.954 524.659 256.946 552.558"/><path class="cls-22" d="M178.3485,524.62151l-.00294,27.80391-21.96025,1.68812.02677-26.036Zm-49.99722,8.02434-.02427,23.60556,18.09287-1.3446.00267-25.20839Zm28.0608,38.795-.02677,26.03605,21.96319,1.29048-.01072-27.80368Zm-28.09728.61082.01214,23.70039,18.119,1.09023-.02335-25.18084Z"/><polygon class="cls-23" points="180.667 458.92 178.388 459.651 178.341 431.96 180.532 432.869 180.667 458.92"/><polygon class="cls-24" points="180.54 432.886 203.532 423.251 203.562 421.01 178.341 431.96 180.54 432.886"/><polygon class="cls-24" points="148.427 446.597 166.996 438.865 166.998 436.867 146.439 445.771 148.427 446.597"/><polygon class="cls-23" points="148.455 470.234 146.444 470.945 146.441 445.764 148.431 446.59 148.455 470.234"/><polygon class="cls-23" points="180.667 505.593 178.337 506.094 178.341 478.238 180.532 479.147 180.667 505.593"/><polygon class="cls-24" points="180.54 479.164 203.59 472.557 203.562 470.827 178.341 478.238 180.54 479.164"/><polygon class="cls-24" points="148.427 488.531 166.996 483.181 166.998 481.606 146.439 487.705 148.427 488.531"/><polygon class="cls-23" points="148.437 512.49 146.444 512.878 146.441 487.697 148.431 488.524 148.437 512.49"/><polygon class="cls-23" points="158.605 553.949 156.385 554.114 156.406 528.071 158.597 528.981 158.605 553.949"/><polygon class="cls-24" points="158.597 529.005 178.347 526.026 178.349 524.622 156.399 528.082 158.597 529.005"/><polygon class="cls-25" points="130.311 556.123 128.328 556.271 128.32 532.544 130.307 533.378 130.311 556.123"/><polygon class="cls-24" points="130.292 533.381 146.421 530.971 146.423 529.698 128.298 532.541 130.292 533.381"/><polygon class="cls-23" points="158.461 597.265 156.32 597.43 156.409 571.441 158.516 572.039 158.461 597.265"/><polygon class="cls-24" points="158.508 572.105 178.338 571.734 178.338 570.964 156.357 571.426 158.508 572.105"/><polygon class="cls-25" points="130.308 595.866 128.327 595.752 128.307 572.052 130.293 572.693 130.308 595.866"/><polygon class="cls-24" points="130.316 572.693 146.426 572.425 146.427 571.661 128.322 572.058 130.316 572.693"/><path class="cls-19" d="M130.58151,527.26072c-3.05822,2.954-3.48758,9.04711-3.11054,12.337.36037,3.14451-3.519,3.888-1.4453,12.78558.51878,2.22593-.96377,4.21352-1.44531,5.98156-1.77407,6.51388,1.4838,9.94234-.87267,15.66221-1.25032,3.03491-1.41,13.89307.04508,21.02767,2.70257,13.25132,6.826,11.74753,11.07039,9.96629,2.06225-.86548,3.63893,9.44133,6.23479-2.1637,4.44617-19.877,1.18023-25.20194-.1657-30.09683-.53849-1.95839-2.81123-7.08819-1.98455-9.8347a25.85784,25.85784,0,0,0-.56555-17.27175c-.834-2.19079-1.88888-1.85339-1.53725-4.71313s1.109-3.77311-.46208-6.691c-1.48622-2.7603-.464-3.92453-1.50175-6.13758C133.64934,525.57084,131.66805,526.2112,130.58151,527.26072Z"/><polygon class="cls-26" points="256.942 459.8 254.261 458.887 254.255 432.372 256.944 431.998 256.942 459.8"/><polygon class="cls-24" points="231.711 423.202 254.253 432.721 256.946 432.001 231.716 421.101 231.711 423.202"/><polygon class="cls-24" points="231.711 472.718 254.253 479.06 256.954 478.348 231.716 470.894 231.711 472.718"/><polygon class="cls-27" points="256.956 506.127 254.253 505.543 254.253 479.06 256.942 478.346 256.956 506.127"/><polygon class="cls-24" points="231.71 522.072 254.253 525.44 256.954 524.659 231.715 520.645 231.71 522.072"/><polygon class="cls-28" points="268.296 536.863 268.312 517.369 262.715 519.113 262.7 536.533 268.296 536.863"/><polygon class="cls-29" points="250.95 551.98 250.966 533.121 244.766 534.601 244.752 551.651 250.95 551.98"/><polygon class="cls-30" points="231.631 550.549 224.815 551.297 224.849 570.247 231.85 570.4 231.631 550.549"/><polygon class="cls-31" points="210.474 569.946 203.565 570.384 203.571 599.851 210.491 599.13 210.474 569.946"/><polygon class="cls-32" points="307.021 525.049 268.294 517.402 268.294 535.415 250.947 533.137 250.947 551.964 231.705 550.502 231.706 570.4 210.447 569.938 210.472 618.121 307.013 560.584 307.021 525.049"/><path class="cls-11" d="M310.84053,461.5825c-4.2718,5.47053-1.74359,12.20516-6.62566,22.84109-2.65791,5.79045.04508,14.31175-.26154,18.56929-.34805,4.83287-7.96763,8.98417-1.42915,28.51244,1.98445,5.92691-8.88726,13.71177,3.69583,52.52115,1.39877,4.31415,14.6402,1.16413,18.65646-4.7513,5.6231-8.28208,6.11645-21.84846,4.70771-27.1129-.96475-3.60528-3.5094-11.02891-2.04872-16.21544,4.15686-14.76008-2.25058-16.0425-2.39745-23.71289s2.40916-9.62142-.26075-16.22041c-1.652-4.08316-2.60816-4.8509-2.04768-10.23287s1.95629-7.12419-1.11217-12.54583c-2.90277-5.12887-1.01642-7.35167-3.05347-11.46928C316.32455,457.03684,312.58852,459.344,310.84053,461.5825Z"/><rect class="cls-33" x="136.27617" y="597.11599" width="1.66561" transform="translate(-467.72677 694.68698) rotate(-86.23189)"/><polygon class="cls-34" points="-36.42 -5.281 -36.42 530.28 -20.458 530.945 385.242 -0.788 -36.42 -5.281"/><path class="cls-11" d="M286.8661,511.71086c-3.4571.15714-6.14617,3.46539-5.318,14.73338.29482,4.011.94258,3.65177-1.48205,9.19746-4.09745,9.37183.187,12.12645-2.22309,20.92314-2.61539,9.54619-.52307,21.01033,5.88464,25.10777,2.49693,1.59668,9.63937,1.30741,11.03108-1.37282a38.72767,38.72767,0,0,0,3.902-17.00983c-.06871-5.62824-.11-12.28215-2.64079-19.84567-.88981-2.65934-4.62012-8.7862-3.14481-14.09731,1.90441-6.85588-2.34751-6.25916-2.02059-10.8361C291.23529,513.18083,288.30457,511.64547,286.8661,511.71086Z"/><path class="cls-35" d="M314.06618,463.12994c-.70286-.70287-2.03283.15835-2.61539,1.56923-4.18463,10.13465,1.28231,8.02393-4.34079,18.28934-4.3134,7.87446,4.22821,14.93543-1.15788,23.75945-8.1949,13.42568,5.8038,17.34242.39866,29.80913-1.0854,2.50342-3.09495,5.054.07451,15.01907,2.6595,8.36171-6.13351,10.26306,2.846,25.34516,2.75588,4.6288,13.949,10.97159,10.81029,2.26667-5.26278-14.596-7.56832-28.15258-2.26668-34.436,4.70771-5.57951,2.84457-14.03977-.61025-21.27187-7.31242-15.30732-2.88572-18.85333-1.56924-24.19238,3.13847-12.72824-5.36155-12.94619-1.96154-23.01545C315.29226,471.47937,315.46106,464.52481,314.06618,463.12994Z"/><path class="cls-36" d="M375.62413,710.35026C355.907,691.707,342.36869,683.6,318.191,675.20023c-10.51752-3.654-29.72974-8.61951-39.26351-7.23451s-45.98286,3.35334-57.39727,5.77c-18.89381,4.00025-28.54516,2.844-31.66131.73594s-13.9505-9.79583-19.84513-12.16789-34.458-15.17158-42.21642-18.43868-18.315-8.03086-21.72947-9.51769-7.77316-4.19163-13.74149-11.1863-19.42128-19.4186-25.04213-23.95279S53.279,590.18418,49.81539,585.6156s-19.919-19.218-19.919-19.218-1.85719-4.22467,4.39467-7.12135c5.5215-2.55828,10.04292-1.59264,15.97386,1.36367s19.85463,7.92925,26.043,14.22685a64.4989,64.4989,0,0,1,4.5496,5.01365s2.054.30506,7.54578,3.05045,15.372,7.3821,18.90644,10.37661a75.924,75.924,0,0,1,6.22305,5.93436s6.78968.50827,10.691,3.5286c2.32114.57951,2.77575-2.17385,12.50756.52943,1.75739.48816,4.34467-3.466,33.77678-3.45649,12.863.00414,17.99064.02676,26.05506.11611s27.01961-3.1254,35.20811-8.92184,24.359-12.52408,39.36731-14.28878,42.01985-2.41324,49.00537-1.65293,11.35321,1.34443,17.969,6.2511a52.32379,52.32379,0,0,0,16.7,8.66843c4.37811,1.23771,7.67732,3.14639,12.53978,7.42724S546.85694,777.90219,546.85694,777.90219l-36.1958,107.84922S387.55061,721.62714,375.62413,710.35026Z"/><path class="cls-37" d="M284.14792,638.06375c-26.88,3.28861-45.91383.65014-61.1513,1.97194-25.96891,2.25273-25.24825,1.78966-38.517.92231s-21.06611-1.74487-28.48688-3.16783-22.47869-3.34068-22.47869-3.34068,16.32345-.87674,22.6656.56342a156.77071,156.77071,0,0,0,29.49336,3.46c11.09922.13131,16.64146-.2653,34.79431-2.40422a108.38793,108.38793,0,0,1,26.2047.19875C257.67622,637.68265,260.29071,639.74939,284.14792,638.06375Z"/><path class="cls-38" d="M160.47151,599.688c10.41782-1.11477,11.83936,1.90223,12.34943,4.68772.51,2.78549,7.377,24.20481,26.65031,34.33963,2.54838,1.34006-32.42228-2.12106-44.28839-1.69918-11.86612.422-21.97024-2.49975-24.69744-4.02113-4.432-2.47244-5.91918-8.64579-5.79035-15.16624.12884-6.52061,4.20679-8.93383,6.2985-10.96634C132.9287,604.98209,142.7002,601.58965,160.47151,599.688Z"/><path class="cls-39" d="M167.32693,634.3891c-9.80215,3.7002-39.41878-3.3902-40.61331-5.95773-1.19445-2.56756-5.42154-13.785,1.75163-20.64237,4.78252-4.54592,13.76961-6.38459,31.00531-8.04651,11.8188-1.1396,37.38-.41278,38.89594,5.9303,1.516,6.34324-2.80222,11.86213-4.31522,14.35555C192.65153,622.33513,184.048,628.07709,167.32693,634.3891Z"/><path class="cls-40" d="M218.71013,596.46926c7.52778-2.10078,16.45607-8.053,23.60112-11.3794,11.23332-5.95883,32.59461-12.42938,80.38724-9.80342,4.146.2278,12.07842,3.56954,23.24424,10.63967,5.98732,3.79115,9.60931,2.23736,17.37074,8.26731,19.15489,14.88166,58.74844,58.37813,86.4934,85.90514,1.50387,1.49206-44.587,1.44083-91.01567-13.38209-32.80086-10.47209-67.517-34.08081-78.05112-44.36064C258.90354,601.04638,259.26027,587.73114,218.71013,596.46926Z"/><path class="cls-41" d="M128.12989,607.98962s2.85078-1.93612,18.23207-1.48776c6.73163.19622,9.3984,2.42267,10.06459,4.11656,1.265,3.21649,1.50219,10.842.21029,16.81572-.3912,1.80887-4.00694,3.04971-11.63413,3.321s-16.399-1.23494-18.20852-2.10392-4.39842-5.19862-4.18114-10.90477A12.75151,12.75151,0,0,1,128.12989,607.98962Z"/><path class="cls-42" d="M133.5187,641.52152c-14.28424-6.55392-21.99136-11.50645-30.35118-17.74219-16.69-12.44936-34.00208-23.21367-34.00208-23.21367s7.1241,6.049,15.95767,14.85c9.16229,9.1286,12.32571,14.86565,17.22728,17.14169,9.627,4.47037,19.8791,9.47018,31.36513,14.52737s39.29561,16.53686,39.29561,16.53686S147.80277,648.07527,133.5187,641.52152Z"/><path class="cls-43" d="M180.85731,668.46006c7.97695,7.45387,15.00686,8.45289,20.40006,8.10772,16.34621-1.04616,39.454-5.21655,51.95914-6.27694C214.42152,673.42931,195.1112,676.0447,180.85731,668.46006Z"/><path class="cls-44" d="M439.66428,792.55773c-8.0742-6.94711-24.884-72.04284-49.731-103.08857-8.99722-11.24183-43.06364-55.29911-85.33414-54.74169C192.72668,636.20272,192.43153,666.031,164.08248,657.0041c27.537,25.76253,47.14722,18.36007,47.14722,18.36007s37.20811-5.67935,69.23871-7.42309c8.89668-.48435,20.23651,3.11287,49.19386,11.39182C377.66032,693.05561,439.66428,792.55773,439.66428,792.55773Z"/><path class="cls-45" d="M531.39261,822.99959,359.65664,694.8839c44.62979,44.13936,27.96293,31.36722,59.84965,70.71468,45.779,56.49026,91.6024,119.22086,91.6024,119.22086Z"/><ellipse class="cls-46" cx="263.39747" cy="612.26531" rx="37.44803" ry="37.13981" transform="translate(-9.72621 4.27642) rotate(-0.91335)"/><path class="cls-47" d="M375.35535,630.36251c-11.82066-24.23832-30.15367-41.37133-40.9091-49.45272a38.76805,38.76805,0,0,0-8.76156-5.13271s5.72117.19616,15.88851,7.29041c5.74155,4.00617,8.23848,5.03463,14.6462,6.86541,4.87981,1.39423,20.26573,15.56151,24.84623,20.20391,9.67695,9.80772,111.1106,112.8106,111.1106,112.8106S389.03972,658.42238,375.35535,630.36251Z"/><path class="cls-48" d="M33.03227,564.30114c.90992.88136,8.20615,6.23668,12.11309,12.3725.91383,1.43516-.93624,2.9048-.93624,2.9048s-14.5457-13.29273-15.66108-14.3731C26.60528,562.98221,30.8593,562.13948,33.03227,564.30114Z"/><polygon class="cls-49" points="146.446 596.845 128.107 595.773 130.318 595.301 146.446 596.269 146.446 596.845"/><polygon class="cls-50" points="178.344 598.762 156.127 597.465 158.339 596.993 178.348 598.046 178.344 598.762"/><path class="cls-51" d="M286.51738,515.02369c-.47821-.32792-2.83334,1.63462-2.35385,7.25771.287,3.366,1.39487,4.11925-1.48206,12.09619-1.62744,4.51246-1.91795,8.28208-.65385,13.88338,1.72661,7.65065-3.14527,7.5004-2.22308,17.15262.65385,6.84361,4.27181,14.82056,7.93336,15.43082,4.36142.7269,9.24294-9.17547,3.70514-17.47955-3.12366-4.684-5.44983-14.66739-3.96668-18.78723,1.56923-4.359,1.74359-11.68209.959-14.03594C284.13162,517.63054,288.80585,516.59292,286.51738,515.02369Z"/><polygon class="cls-52" points="795.265 346.385 650.199 775.638 252.226 776.752 497.641 365.34 795.265 346.385"/></g></g></g></svg>