<svg xmlns="http://www.w3.org/2000/svg" xmlns:xlink="http://www.w3.org/1999/xlink" width="1440" height="612" viewBox="0 0 1440 612"><defs><style>.cls-1{fill:none;}.cls-2{isolation:isolate;}.cls-3{clip-path:url(#clip-path);}.cls-18,.cls-4,.cls-5{mix-blend-mode:multiply;}.cls-33,.cls-4,.cls-5,.cls-51{opacity:0.5;}.cls-4{fill:url(#linear-gradient);}.cls-5{fill:url(#linear-gradient-2);}.cls-6{fill:url(#linear-gradient-3);}.cls-7{fill:url(#linear-gradient-4);}.cls-8{fill:url(#linear-gradient-5);}.cls-9{fill:url(#linear-gradient-6);}.cls-10{fill:#202722;}.cls-11{fill:url(#linear-gradient-7);}.cls-12{fill:url(#linear-gradient-8);}.cls-13{fill:url(#linear-gradient-9);}.cls-14{fill:url(#linear-gradient-10);}.cls-15{fill:url(#linear-gradient-11);}.cls-16{fill:url(#linear-gradient-12);}.cls-17{fill:#ebafbb;}.cls-18{fill:#b57688;opacity:0.8;}.cls-19{fill:url(#linear-gradient-13);}.cls-20{fill:url(#linear-gradient-14);}.cls-21{fill:url(#linear-gradient-15);}.cls-22{fill:#c68193;}.cls-23{fill:#012a5b;}.cls-24{fill:#8e5167;}.cls-25{fill:url(#linear-gradient-16);}.cls-26{fill:url(#linear-gradient-17);}.cls-27{fill:url(#linear-gradient-18);}.cls-28{fill:url(#linear-gradient-19);}.cls-29{fill:url(#linear-gradient-20);}.cls-30{fill:url(#linear-gradient-21);}.cls-31{fill:url(#linear-gradient-22);}.cls-32{fill:url(#linear-gradient-23);}.cls-33{fill:url(#linear-gradient-24);}.cls-34{fill:url(#linear-gradient-25);}.cls-35{fill:url(#linear-gradient-26);}.cls-36{fill:url(#linear-gradient-27);}.cls-37{fill:url(#linear-gradient-28);}.cls-38{fill:url(#linear-gradient-29);}.cls-39{fill:url(#linear-gradient-30);}.cls-40{fill:url(#linear-gradient-31);}.cls-41{fill:url(#linear-gradient-32);}.cls-42{fill:url(#linear-gradient-33);}.cls-43{fill:url(#radial-gradient);}.cls-44{fill:url(#linear-gradient-34);}.cls-45{fill:url(#radial-gradient-2);}.cls-46{fill:url(#linear-gradient-35);}.cls-47{fill:url(#linear-gradient-36);}.cls-48{fill:url(#linear-gradient-37);}.cls-49{fill:url(#linear-gradient-38);}.cls-50{fill:url(#linear-gradient-39);}.cls-51{fill:url(#linear-gradient-40);}</style><clipPath id="clip-path"><rect class="cls-1" width="1440" height="612"/></clipPath><linearGradient id="linear-gradient" x1="890.89023" y1="433.32067" x2="1186.24068" y2="243.71094" gradientTransform="translate(-111.0804 25.61082) rotate(-1.73395)" gradientUnits="userSpaceOnUse"><stop offset="0.02771" stop-color="#2d5ec1"/><stop offset="0.04174" stop-color="#2d5ec1" stop-opacity="0.93839"/><stop offset="0.09746" stop-color="#2d5ec1" stop-opacity="0.71946"/><stop offset="0.15786" stop-color="#2d5ec1" stop-opacity="0.52525"/><stop offset="0.22222" stop-color="#2d5ec1" stop-opacity="0.36198"/><stop offset="0.29183" stop-color="#2d5ec1" stop-opacity="0.22923"/><stop offset="0.36866" stop-color="#2d5ec1" stop-opacity="0.12689"/><stop offset="0.45657" stop-color="#2d5ec1" stop-opacity="0.05472"/><stop offset="0.5652" stop-color="#2d5ec1" stop-opacity="0.01257"/><stop offset="0.75672" stop-color="#2d5ec1" stop-opacity="0"/></linearGradient><linearGradient id="linear-gradient-2" x1="6351.36089" y1="3155.77915" x2="6050.75192" y2="3332.06094" gradientTransform="matrix(-0.8328, -0.55358, 0.55358, -0.8328, 4437.68934, 6432.76306)" xlink:href="#linear-gradient"/><linearGradient id="linear-gradient-3" x1="904.59923" y1="417.50222" x2="917.5818" y2="400.2964" gradientTransform="matrix(0.99987, -0.01594, 0.01594, 0.99987, -64.92972, 9.74416)" gradientUnits="userSpaceOnUse"><stop offset="0.02465" stop-color="#f0c4b4"/><stop offset="0.28032" stop-color="#f5cfba"/><stop offset="0.59968" stop-color="#fad8c3"/><stop offset="0.82248" stop-color="#ffe2cd"/></linearGradient><linearGradient id="linear-gradient-4" x1="818.163" y1="417.93989" x2="810.61741" y2="316.29722" gradientUnits="userSpaceOnUse"><stop offset="0.2675" stop-color="#f0c4b4"/><stop offset="0.51113" stop-color="#fad9c5"/><stop offset="0.68374" stop-color="#ffe2cd"/></linearGradient><linearGradient id="linear-gradient-5" x1="796.28802" y1="420.78568" x2="741.32763" y2="265.415" gradientUnits="userSpaceOnUse"><stop offset="0.20342" stop-color="#f0c4b4"/><stop offset="0.51727" stop-color="#fad9c5"/><stop offset="0.73963" stop-color="#ffe2cd"/></linearGradient><linearGradient id="linear-gradient-6" x1="883.35002" y1="306.50632" x2="946.49863" y2="243.3577" gradientUnits="userSpaceOnUse"><stop offset="0.24637" stop-color="#ebafbb"/><stop offset="0.50869" stop-color="#f4c3cc"/><stop offset="0.88919" stop-color="#ffdde2"/></linearGradient><linearGradient id="linear-gradient-7" x1="795.98234" y1="311.54245" x2="855.58045" y2="422.47755" gradientUnits="userSpaceOnUse"><stop offset="0" stop-color="#a4c99e" stop-opacity="0"/><stop offset="0.02914" stop-color="#a5c99e" stop-opacity="0.06097"/><stop offset="0.22786" stop-color="#a8c99e" stop-opacity="0.45648"/><stop offset="0.36904" stop-color="#aac99e" stop-opacity="0.70442"/><stop offset="0.43848" stop-color="#abc99e" stop-opacity="0.8"/><stop offset="0.5847" stop-color="#a8c99e" stop-opacity="0.42612"/><stop offset="0.75856" stop-color="#a4c99e" stop-opacity="0"/></linearGradient><linearGradient id="linear-gradient-8" x1="732.76189" y1="374.49242" x2="741.69858" y2="357.18348" gradientUnits="userSpaceOnUse"><stop offset="0.1515" stop-color="#fff" stop-opacity="0.4"/><stop offset="0.15643" stop-color="#fff" stop-opacity="0.44691"/><stop offset="0.17196" stop-color="#fff" stop-opacity="0.57391"/><stop offset="0.18803" stop-color="#fff" stop-opacity="0.67341"/><stop offset="0.20465" stop-color="#fff" stop-opacity="0.74418"/><stop offset="0.22217" stop-color="#fff" stop-opacity="0.78633"/><stop offset="0.24207" stop-color="#fff" stop-opacity="0.8"/><stop offset="0.26058" stop-color="#fff" stop-opacity="0.72622"/><stop offset="0.28533" stop-color="#fff" stop-opacity="0.65579"/><stop offset="0.31149" stop-color="#fff" stop-opacity="0.61367"/><stop offset="0.34123" stop-color="#fff" stop-opacity="0.6"/><stop offset="0.3771" stop-color="#fffcf9" stop-opacity="0.64691"/><stop offset="0.49008" stop-color="#fff2e9" stop-opacity="0.77391"/><stop offset="0.60696" stop-color="#ffebdd" stop-opacity="0.87341"/><stop offset="0.72787" stop-color="#ffe6d4" stop-opacity="0.94418"/><stop offset="0.85528" stop-color="#ffe3cf" stop-opacity="0.98633"/><stop offset="1" stop-color="#ffe2cd"/></linearGradient><linearGradient id="linear-gradient-9" x1="882.15189" y1="203.07661" x2="1009.84765" y2="356.04549" gradientUnits="userSpaceOnUse"><stop offset="0.39405" stop-color="#2d5ec1"/><stop offset="0.55476" stop-color="#1e4c9d"/><stop offset="0.74529" stop-color="#0e3979"/><stop offset="0.90056" stop-color="#042e63"/><stop offset="1" stop-color="#012a5b"/></linearGradient><linearGradient id="linear-gradient-10" x1="896.03632" y1="479.85722" x2="896.03632" y2="338.38145" gradientUnits="userSpaceOnUse"><stop offset="0.24637" stop-color="#ebafbb"/><stop offset="0.47595" stop-color="#efb8c3"/><stop offset="0.85605" stop-color="#fad2d8"/><stop offset="1" stop-color="#ffdde2"/></linearGradient><linearGradient id="linear-gradient-11" x1="942.02845" y1="254.38776" x2="1124.27657" y2="451.26253" gradientUnits="userSpaceOnUse"><stop offset="0.09968" stop-color="#ebafbb"/><stop offset="0.23284" stop-color="#d89ba9"/><stop offset="0.43356" stop-color="#b57688"/></linearGradient><linearGradient id="linear-gradient-12" x1="1079.9052" y1="480.79577" x2="1079.9052" y2="368.5532" xlink:href="#linear-gradient-10"/><linearGradient id="linear-gradient-13" x1="1096.94939" y1="137.38546" x2="993.19659" y2="300.33057" xlink:href="#linear-gradient-9"/><linearGradient id="linear-gradient-14" x1="1023.59995" y1="389.68023" x2="1023.59995" y2="300.24271" gradientUnits="userSpaceOnUse"><stop offset="0.61325" stop-color="#ebafbb"/><stop offset="0.71856" stop-color="#efb8c3"/><stop offset="0.8929" stop-color="#fad2d8"/><stop offset="0.95893" stop-color="#ffdde2"/></linearGradient><linearGradient id="linear-gradient-15" x1="835.20157" y1="300.8941" x2="946.49197" y2="429.47663" xlink:href="#linear-gradient-9"/><linearGradient id="linear-gradient-16" x1="1023.60003" y1="295.43608" x2="1023.60003" y2="206.30651" gradientUnits="userSpaceOnUse"><stop offset="0" stop-color="#ebafbb"/><stop offset="0.21367" stop-color="#efb8c3"/><stop offset="0.56743" stop-color="#fad2d8"/><stop offset="0.7014" stop-color="#ffdde2"/></linearGradient><linearGradient id="linear-gradient-17" x1="1023.60626" y1="354.29742" x2="1023.60626" y2="265.23642" xlink:href="#linear-gradient-16"/><linearGradient id="linear-gradient-18" x1="3906.65068" y1="308.81343" x2="3906.65068" y2="372.41701" gradientTransform="matrix(-1, 0, 0, 1, 4942.84643, 0)" gradientUnits="userSpaceOnUse"><stop offset="0.23997" stop-color="#ffdde2"/><stop offset="0.32242" stop-color="#fbd4da"/><stop offset="0.45892" stop-color="#f0bac5"/><stop offset="0.51062" stop-color="#ebafbb"/></linearGradient><linearGradient id="linear-gradient-19" x1="1013.75781" y1="368.35256" x2="1013.75781" y2="326.63926" gradientUnits="userSpaceOnUse"><stop offset="0.18451" stop-color="#ebafbb"/><stop offset="0.28981" stop-color="#efb8c3"/><stop offset="0.46414" stop-color="#fad2d8"/><stop offset="0.53016" stop-color="#ffdde2"/></linearGradient><linearGradient id="linear-gradient-20" x1="988.93067" y1="389.29049" x2="988.93067" y2="357.84222" gradientUnits="userSpaceOnUse"><stop offset="0" stop-color="#ebafbb"/><stop offset="0.1615" stop-color="#efb8c3"/><stop offset="0.42889" stop-color="#fad2d8"/><stop offset="0.53016" stop-color="#ffdde2"/></linearGradient><linearGradient id="linear-gradient-21" x1="961.7345" y1="431.90783" x2="961.90002" y2="382.41818" xlink:href="#linear-gradient-20"/><linearGradient id="linear-gradient-22" x1="950.60926" y1="332.32641" x2="1093.01649" y2="425.74279" gradientUnits="userSpaceOnUse"><stop offset="0.0911" stop-color="#ebafbb"/><stop offset="0.27171" stop-color="#e7abb7"/><stop offset="0.46983" stop-color="#da9dab"/><stop offset="0.67549" stop-color="#c68898"/><stop offset="0.80353" stop-color="#b57688"/></linearGradient><linearGradient id="linear-gradient-23" x1="872.94188" y1="415.29367" x2="872.94188" y2="415.29367" gradientTransform="translate(1229.96943 -483.05352) rotate(86.2319)" gradientUnits="userSpaceOnUse"><stop offset="0.09523" stop-color="#929e70"/><stop offset="0.14011" stop-color="#929e70" stop-opacity="0.87683"/><stop offset="0.28757" stop-color="#929e70" stop-opacity="0.50262"/><stop offset="0.41338" stop-color="#929e70" stop-opacity="0.22987"/><stop offset="0.5112" stop-color="#929e70" stop-opacity="0.06219"/><stop offset="0.56908" stop-color="#929e70" stop-opacity="0"/></linearGradient><linearGradient id="linear-gradient-24" x1="6593.17559" y1="539.66804" x2="6068.9224" y2="479.48814" gradientTransform="translate(7531.47765 -1451.50693) rotate(159.30113)" gradientUnits="userSpaceOnUse"><stop offset="0" stop-color="#fff" stop-opacity="0.7"/><stop offset="0.00974" stop-color="#fff" stop-opacity="0.6444"/><stop offset="0.03977" stop-color="#fff" stop-opacity="0.49377"/><stop offset="0.07307" stop-color="#fff" stop-opacity="0.35977"/><stop offset="0.10936" stop-color="#fff" stop-opacity="0.24727"/><stop offset="0.14965" stop-color="#fff" stop-opacity="0.15606"/><stop offset="0.19569" stop-color="#fff" stop-opacity="0.08589"/><stop offset="0.25097" stop-color="#fff" stop-opacity="0.0366"/><stop offset="0.32474" stop-color="#fff" stop-opacity="0.00811"/><stop offset="0.49347" stop-color="#fff" stop-opacity="0"/></linearGradient><linearGradient id="linear-gradient-25" x1="1081.36896" y1="236.99597" x2="1107.03099" y2="406.27534" gradientUnits="userSpaceOnUse"><stop offset="0" stop-color="#a4c99e" stop-opacity="0"/><stop offset="0.02914" stop-color="#a5c99e" stop-opacity="0.06097"/><stop offset="0.22786" stop-color="#a8c99e" stop-opacity="0.45648"/><stop offset="0.36904" stop-color="#aac99e" stop-opacity="0.70442"/><stop offset="0.43848" stop-color="#abc99e" stop-opacity="0.8"/><stop offset="0.6036" stop-color="#a8c99e" stop-opacity="0.42612"/><stop offset="0.79993" stop-color="#a4c99e" stop-opacity="0"/></linearGradient><linearGradient id="linear-gradient-26" x1="1220.63303" y1="388.47168" x2="1134.39859" y2="526.72055" gradientTransform="matrix(0.99987, -0.01594, 0.01594, 0.99987, -64.92972, 9.74416)" gradientUnits="userSpaceOnUse"><stop offset="0" stop-color="#f5cfba"/><stop offset="0.08208" stop-color="#f9d4c1"/><stop offset="0.26749" stop-color="#fddaca"/><stop offset="0.52819" stop-color="#ffdccd"/></linearGradient><linearGradient id="linear-gradient-27" x1="1046.75678" y1="469.24791" x2="876.82831" y2="466.25504" gradientUnits="userSpaceOnUse"><stop offset="0.02465" stop-color="#f0c4b4"/><stop offset="1" stop-color="#f5cfba"/></linearGradient><linearGradient id="linear-gradient-28" x1="949.27096" y1="480.04071" x2="977.52345" y2="434.24685" gradientTransform="matrix(0.99987, -0.01594, 0.01594, 0.99987, -64.92972, 9.74416)" gradientUnits="userSpaceOnUse"><stop offset="0.21822" stop-color="#f7cfba"/><stop offset="0.37024" stop-color="#f7cfba" stop-opacity="0.54079"/><stop offset="0.55416" stop-color="#f7cfba" stop-opacity="0"/></linearGradient><linearGradient id="linear-gradient-29" x1="930.64069" y1="428.52704" x2="1029.42059" y2="480.27722" gradientTransform="matrix(0.99987, -0.01594, 0.01594, 0.99987, -64.92972, 9.74416)" gradientUnits="userSpaceOnUse"><stop offset="0.13539" stop-color="#f7cfba"/><stop offset="0.5943" stop-color="#f7cfba" stop-opacity="0"/></linearGradient><linearGradient id="linear-gradient-30" x1="1162.79289" y1="511.7625" x2="1237.10577" y2="370.10166" gradientTransform="matrix(0.99987, -0.01594, 0.01594, 0.99987, -64.92972, 9.74416)" gradientUnits="userSpaceOnUse"><stop offset="0.25602" stop-color="#f7cfba" stop-opacity="0"/><stop offset="0.28209" stop-color="#f7cfba" stop-opacity="0.03806"/><stop offset="0.32544" stop-color="#f7cfba" stop-opacity="0.14114"/><stop offset="0.38073" stop-color="#f7cfba" stop-opacity="0.30909"/><stop offset="0.44577" stop-color="#f7cfba" stop-opacity="0.54201"/><stop offset="0.51819" stop-color="#f7cfba" stop-opacity="0.83538"/><stop offset="0.55591" stop-color="#f7cfba"/></linearGradient><linearGradient id="linear-gradient-31" x1="934.45379" y1="432.54238" x2="934.75431" y2="464.99934" gradientTransform="matrix(0.99987, -0.01594, 0.01594, 0.99987, -64.92972, 9.74416)" xlink:href="#linear-gradient-8"/><linearGradient id="linear-gradient-32" x1="899.80679" y1="484.74329" x2="928.08882" y2="429.96546" gradientTransform="matrix(0.99987, -0.01594, 0.01594, 0.99987, -64.92972, 9.74416)" gradientUnits="userSpaceOnUse"><stop offset="0.02465" stop-color="#f0c4b4"/><stop offset="0.32726" stop-color="#f5cfba"/></linearGradient><linearGradient id="linear-gradient-33" x1="3525.75474" y1="1461.63205" x2="3543.85219" y2="1426.58016" gradientTransform="translate(-2813.03273 988.51585) rotate(-29.52366)" xlink:href="#linear-gradient-32"/><radialGradient id="radial-gradient" cx="1136.87542" cy="519.67084" r="151.34315" gradientTransform="matrix(0.9848, 0.1737, -0.04942, 0.28021, -13.8241, 168.13451)" gradientUnits="userSpaceOnUse"><stop offset="0.29717" stop-color="#f7cfba"/><stop offset="0.29911" stop-color="#f7cfba" stop-opacity="0.9952"/><stop offset="0.44669" stop-color="#f7cfba" stop-opacity="0.64659"/><stop offset="0.5768" stop-color="#f7cfba" stop-opacity="0.36951"/><stop offset="0.68469" stop-color="#f7cfba" stop-opacity="0.16942"/><stop offset="0.76629" stop-color="#f7cfba" stop-opacity="0.04618"/><stop offset="0.81214" stop-color="#f7cfba" stop-opacity="0"/></radialGradient><linearGradient id="linear-gradient-34" x1="1290.62208" y1="687.15118" x2="1347.64166" y2="631.30727" gradientTransform="matrix(0.99987, -0.01594, 0.01594, 0.99987, -64.92972, 9.74416)" gradientUnits="userSpaceOnUse"><stop offset="0.15587" stop-color="#f7cfba"/><stop offset="0.4014" stop-color="#f7cfba" stop-opacity="0.54079"/><stop offset="0.69845" stop-color="#f7cfba" stop-opacity="0"/></linearGradient><radialGradient id="radial-gradient-2" cx="1087.1753" cy="445.88321" r="76.99781" gradientTransform="matrix(-0.94573, -0.32496, 0.26949, -0.78428, 1937.16962, 1141.15769)" gradientUnits="userSpaceOnUse"><stop offset="0" stop-color="#f7cfba"/><stop offset="0.24272" stop-color="#f7cfba" stop-opacity="0.54079"/><stop offset="0.53637" stop-color="#f7cfba" stop-opacity="0"/></radialGradient><linearGradient id="linear-gradient-35" x1="1134.96107" y1="393.69456" x2="1258.22289" y2="526.66536" gradientUnits="userSpaceOnUse"><stop offset="0.17281" stop-color="#f0c4b4"/><stop offset="0.23784" stop-color="#f1c5b5" stop-opacity="0.95581"/><stop offset="0.3509" stop-color="#f2c9b8" stop-opacity="0.83719"/><stop offset="0.49848" stop-color="#f5cfbd" stop-opacity="0.64438"/><stop offset="0.67492" stop-color="#f9d7c4" stop-opacity="0.37722"/><stop offset="0.87374" stop-color="#fee1cc" stop-opacity="0.0409"/><stop offset="0.89673" stop-color="#ffe2cd" stop-opacity="0"/></linearGradient><linearGradient id="linear-gradient-36" x1="802.04208" y1="387.69613" x2="808.17056" y2="380.87712" gradientTransform="matrix(0.99987, -0.01594, 0.01594, 0.99987, -64.92972, 9.74416)" gradientUnits="userSpaceOnUse"><stop offset="0.11686" stop-color="#fff" stop-opacity="0.4"/><stop offset="0.13067" stop-color="#fff" stop-opacity="0.44691"/><stop offset="0.17418" stop-color="#fff" stop-opacity="0.57391"/><stop offset="0.21918" stop-color="#fff" stop-opacity="0.67341"/><stop offset="0.26574" stop-color="#fff" stop-opacity="0.74418"/><stop offset="0.3148" stop-color="#fff" stop-opacity="0.78633"/><stop offset="0.37052" stop-color="#fff" stop-opacity="0.8"/><stop offset="0.44557" stop-color="#fff" stop-opacity="0.72622"/><stop offset="0.5459" stop-color="#fff" stop-opacity="0.65579"/><stop offset="0.65199" stop-color="#fff" stop-opacity="0.61367"/><stop offset="0.77252" stop-color="#fff" stop-opacity="0.6"/><stop offset="0.78491" stop-color="#fffcf9" stop-opacity="0.64691"/><stop offset="0.82393" stop-color="#fff2e9" stop-opacity="0.77391"/><stop offset="0.86428" stop-color="#ffebdd" stop-opacity="0.87341"/><stop offset="0.90603" stop-color="#ffe6d4" stop-opacity="0.94418"/><stop offset="0.95003" stop-color="#ffe3cf" stop-opacity="0.98633"/><stop offset="1" stop-color="#ffe2cd"/></linearGradient><linearGradient id="linear-gradient-37" x1="850.76947" y1="414.43217" x2="878.39352" y2="413.89296" xlink:href="#linear-gradient-10"/><linearGradient id="linear-gradient-38" x1="884.12767" y1="416.81918" x2="917.59916" y2="416.16583" xlink:href="#linear-gradient-10"/><linearGradient id="linear-gradient-39" x1="1038.88181" y1="308.92226" x2="1079.88372" y2="385.24264" gradientUnits="userSpaceOnUse"><stop offset="0.08834" stop-color="#a4c99e" stop-opacity="0"/><stop offset="0.11161" stop-color="#a5c99e" stop-opacity="0.06097"/><stop offset="0.27029" stop-color="#a8c99e" stop-opacity="0.45648"/><stop offset="0.38303" stop-color="#aac99e" stop-opacity="0.70442"/><stop offset="0.43848" stop-color="#abc99e" stop-opacity="0.8"/><stop offset="0.49641" stop-color="#aac99e" stop-opacity="0.73015"/><stop offset="0.60605" stop-color="#a9c99e" stop-opacity="0.54614"/><stop offset="0.75445" stop-color="#a6c99e" stop-opacity="0.25146"/><stop offset="0.86954" stop-color="#a4c99e" stop-opacity="0"/></linearGradient><linearGradient id="linear-gradient-40" x1="1170.4563" y1="241.94628" x2="1436.15224" y2="318.38551" gradientUnits="userSpaceOnUse"><stop offset="0" stop-color="#fff" stop-opacity="0.7"/><stop offset="0.07908" stop-color="#fff" stop-opacity="0.56048"/><stop offset="0.20534" stop-color="#fff" stop-opacity="0.36191"/><stop offset="0.3243" stop-color="#fff" stop-opacity="0.20516"/><stop offset="0.43253" stop-color="#fff" stop-opacity="0.09265"/><stop offset="0.52638" stop-color="#fff" stop-opacity="0.02425"/><stop offset="0.59528" stop-color="#fff" stop-opacity="0"/></linearGradient></defs><g class="cls-2"><g id="Layer_4" data-name="Layer 4"><g class="cls-3"><polygon class="cls-4" points="1198.034 -2.893 1220.374 615.641 966.363 619.265 730.481 -2.893 1198.034 -2.893"/><polygon class="cls-5" points="1437.962 -0.897 1439.957 615.634 975.231 613.306 975.009 -3.17 1437.962 -0.897"/><path class="cls-6" d="M813.75077,386.34115s8.638-6.04188,18.05706-2.874,22.27673,13.89294,29.98634,20.01577,10.67387,8.41772,10.67387,8.41772l19.08623,9.64986s-12.04982,3.21738-21.03823,2.58-11.13483-.60321-11.13483-.60321-17.57362-15.77332-24.2858-20.5458S813.75077,386.34115,813.75077,386.34115Z"/><path class="cls-7" d="M769.22027,366.1181s7.389-4.8021,17.24508,1.28651a324.9148,324.9148,0,0,1,29.212,20.41847c11.46062,8.79553,20.86672,14.20819,27.97849,19.55983s20.01974,16.17348,20.01974,16.17348-4.34531,2.89937-20.35881-3.7742c-1.81036-.75446-22.94612-19.1521-33.784-25.61542s-15.68234-10.38725-25.94418-17.44529S769.22027,366.1181,769.22027,366.1181Z"/><path class="cls-8" d="M737.87928,374.37612l-4.25656-4.088a3.19506,3.19506,0,0,1-.64122-3.76979c2.08616-4.01678,8.06771-11.6896,22.30892-7.98531,7.05676,1.83553,19.89474,11.39358,19.89474,11.39358s17.711,9.08625,32.54791,21.53637,32.21365,25.05491,32.21365,25.05491a186.064,186.064,0,0,1-36.06915-15.91762c-17.33939-10.26324-25.03242-22.998-37.40958-28.07055s-15.112-3.68706-23.46677-1.30931C737.878,372.67846,737.87928,374.37612,737.87928,374.37612Z"/><polygon class="cls-9" points="872.964 311.911 872.964 207.49 975.132 157.444 977.486 321.773 872.964 311.911"/><path class="cls-10" d="M824.4238,312.19c-3.90735,4.15676-5.37608,10.80758-4.711,15.68485.6357,4.66179-6.20743,5.764-2.54948,18.95484.91512,3.3-1.70006,6.2466-2.54948,8.86776-3.12943,9.65693,2.66033,14.02215-1.49643,22.502-2.20554,4.49929-4.60015,15.29688,1.49643,30.03954,12.37677,29.92928,10.58113,19.26777,18.06807,16.627,3.63777-1.28308,4.0965,23.71546,9.53284-.9422,4.65557-21.11636,3.5471-39.62781,1.17291-46.88456-.9499-2.90335-4.37376-10.34414-3.5007-14.58011,2.99287-14.521,1.38006-18.91559-.99762-24.16465-1.4712-3.24788-3.33195-4.18868-2.71168-8.42831s.71643-6.7023-.8151-9.91947c-2.089-4.38809-.81854-5.81817-2.64906-9.09906C830.61131,307.07979,826.91945,309.535,824.4238,312.19Z"/><path class="cls-11" d="M827.66608,312.02371c-.66513-.318-6.152,3.74109-5.54235,10.89072.36494,4.2798,1.71489,7.49949-1.19161,10.6136-5.4315,5.81947,4.96041,7.37133-.44339,17.73552-7.02427,13.47219,1.66271,14.63181-2.882,25.384-5.50811,13.03138-2.21694,33.03241,2.99287,38.46391,3.89165,4.05725,15.186,6.98336,15.186,6.98336-15.51858-26.38159,1.55186-22.39109-7.981-43.452-4.08368-9.02206-1.64747-16.26007.22169-21.50432,5.12264-14.37244,1.79451-18.06036,0-21.83686C820.59958,319.67215,828.215,312.28619,827.66608,312.02371Z"/><path class="cls-12" d="M740.42207,368.18245a8.025,8.025,0,0,0-3.80236,4.19235l-4.82609-4.53359S733.9873,363.84385,740.42207,368.18245Z"/><path class="cls-13" d="M957.45,191.35256V229.3698l-31.9947,11.1387-.08822-35.20727ZM884.80577,222.86l.00539,32.00981,26.13979-9.18336-.00876-34.14853ZM925.367,264.14261l-.00434,35.419L957.45,292.71118V254.71464Zm-40.56126,12.03462.00539,32.00981,26.13979-5.59629-.00876-34.14853Z"/><polygon class="cls-14" points="851.24 315.346 851.24 432.501 900.671 442.144 940.805 441.405 940.833 296.318 851.24 315.346"/><polygon class="cls-15" points="975.15 157.392 1055.343 196.059 1055.343 447.222 940.64 433.625 940.792 296.256 975.191 302.787 975.15 157.392"/><polygon class="cls-16" points="1055.374 196.05 1055.267 431.941 1104.543 431.922 1104.512 181.97 1055.374 196.05"/><path class="cls-17" d="M1104.512,181.9698l9.65172,5.80345-.20172,238.95517-9.32586,3.51724S1104.512,183.05375,1104.512,181.9698Z"/><polygon class="cls-18" points="1055.346 196.05 1104.564 246.449 1104.264 420.629 1055.34 419.185 1055.346 196.05"/><path class="cls-19" d="M1025.30654,240.69982l-32.08016-11.23959.00658-37.965,32.0713,13.8668Zm0,23.58037L993.233,254.80558l-.00658,37.965,32.09826,6.8327Zm.01582,58.88616-32.09379-5.10413-.00706,37.9632,32.26865,2.3659Z"/><polygon class="cls-20" points="1025.312 358.639 1021.878 358.287 1021.88 324.149 1025.322 323.166 1025.312 358.639"/><path class="cls-21" d="M925.377,323.11865l-.00375,35.352-27.92193,2.1464.034-33.10422Zm-63.5703,10.20276-.03086,30.01391,23.00466-1.70963.00339-32.05187Zm35.67865,49.32693-.034,33.10422,27.92568,1.64081-.01364-35.35172Zm-35.725.77664.01543,30.13448,23.03784,1.3862-.0297-32.01684Z"/><polygon class="cls-22" points="928.325 239.58 925.427 240.51 925.367 205.301 928.153 206.458 928.325 239.58"/><polygon class="cls-23" points="928.163 206.479 957.397 194.228 957.435 191.379 925.367 205.301 928.163 206.479"/><polygon class="cls-23" points="887.333 223.913 910.943 214.082 910.946 211.541 884.805 222.863 887.333 223.913"/><polygon class="cls-22" points="887.368 253.966 884.811 254.87 884.807 222.853 887.337 223.904 887.368 253.966"/><polygon class="cls-22" points="928.325 298.925 925.363 299.562 925.367 264.143 928.153 265.299 928.325 298.925"/><polygon class="cls-23" points="928.163 265.321 957.471 256.92 957.435 254.72 925.367 264.143 928.163 265.321"/><polygon class="cls-23" points="887.333 277.23 910.943 270.428 910.946 268.426 884.805 276.18 887.333 277.23"/><polygon class="cls-22" points="887.346 307.694 884.811 308.187 884.807 276.17 887.337 277.221 887.346 307.694"/><polygon class="cls-22" points="900.274 360.408 897.451 360.617 897.478 327.504 900.264 328.661 900.274 360.408"/><polygon class="cls-23" points="900.264 328.692 925.375 324.904 925.377 323.119 897.469 327.518 900.264 328.692"/><polygon class="cls-24" points="864.299 363.173 861.777 363.36 861.767 333.192 864.293 334.252 864.299 363.173"/><polygon class="cls-23" points="864.274 334.256 884.782 331.192 884.784 329.574 861.739 333.188 864.274 334.256"/><polygon class="cls-22" points="900.091 415.484 897.369 415.693 897.481 382.648 900.16 383.409 900.091 415.484"/><polygon class="cls-23" points="900.15 383.492 925.364 383.021 925.363 382.042 897.416 382.63 900.15 383.492"/><polygon class="cls-24" points="864.295 413.704 861.776 413.559 861.75 383.425 864.276 384.241 864.295 413.704"/><polygon class="cls-23" points="864.305 384.241 884.788 383.899 884.789 382.929 861.77 383.433 864.305 384.241"/><path class="cls-18" d="M864.64236,326.47434c-3.88845,3.756-4.43437,11.50319-3.955,15.68617.45821,3.99816-4.47432,4.94351-1.83767,16.25656.65962,2.83022-1.22541,5.35739-1.83767,7.60542-2.25569,8.28223,1.88662,12.64145-1.10958,19.91412-1.58975,3.85881-1.79279,17.66471.05732,26.73619,3.43626,16.84874,8.67914,14.93671,14.07573,12.6719,2.62211-1.10043,4.62682,12.00444,7.9274-2.75109,5.6532-25.27312,1.50063-32.04367-.21069-38.2674-.68468-2.49006-3.57441-9.01247-2.5233-12.5046a32.8776,32.8776,0,0,0-.71909-21.96062c-1.06044-2.78554-2.40167-2.35654-1.95458-5.99264s1.41-4.79741-.58752-8.50741c-1.8897-3.50965-.59-4.98994-1.90944-7.80379C868.543,324.32569,866.02387,325.13989,864.64236,326.47434Z"/><polygon class="cls-25" points="1025.307 240.7 1021.898 239.539 1021.89 205.825 1025.31 205.35 1025.307 240.7"/><polygon class="cls-23" points="993.226 194.166 1021.888 206.27 1025.312 205.354 993.233 191.495 993.226 194.166"/><polygon class="cls-23" points="993.226 257.125 1021.888 265.189 1025.322 264.284 993.233 254.806 993.226 257.125"/><polygon class="cls-26" points="1025.325 299.603 1021.888 298.861 1021.888 265.189 1025.307 264.28 1025.325 299.603"/><polygon class="cls-23" points="993.225 319.877 1021.888 324.159 1025.322 323.166 993.232 318.062 993.225 319.877"/><polygon class="cls-27" points="1039.743 338.684 1039.764 313.897 1032.647 316.115 1032.628 338.264 1039.743 338.684"/><polygon class="cls-28" points="1017.688 357.904 1017.709 333.925 1009.826 335.808 1009.807 357.487 1017.688 357.904"/><polygon class="cls-29" points="993.124 356.085 984.458 357.036 984.502 381.131 993.403 381.325 993.124 356.085"/><polygon class="cls-30" points="966.223 380.747 957.44 381.304 957.447 418.771 966.246 417.855 966.223 380.747"/><polygon class="cls-31" points="1088.981 323.663 1039.74 313.939 1039.74 336.842 1017.685 333.946 1017.685 357.884 993.218 356.025 993.219 381.325 966.189 380.737 966.222 442.001 1088.97 368.843 1088.981 323.663"/><path class="cls-10" d="M1093.83747,242.966c-5.43151,6.95565-2.21694,15.51858-8.42438,29.04192-3.37947,7.36242.05732,18.197-.33254,23.61041-.44253,6.14488-10.13066,11.42316-1.81714,36.25289,2.52319,7.53593-11.29993,17.4342,4.69916,66.77941,1.77851,5.48535,18.61468,1.48017,23.72126-6.04116,7.14964-10.53047,7.77692-27.7798,5.98574-34.47342-1.22665-4.584-4.46211-14.023-2.6049-20.61755,5.28535-18.76709-2.86155-20.39766-3.04829-30.15038s3.06318-12.23341-.33154-20.62387c-2.1005-5.19164-3.31622-6.1678-2.60358-13.01086s2.48737-9.05823-1.41411-15.95172c-3.69079-6.52123-1.29234-9.34748-3.88241-14.58291C1100.81026,237.18633,1096.06,240.11983,1093.83747,242.966Z"/><rect class="cls-32" x="871.88299" y="415.29367" width="2.11778" transform="translate(401.17765 1259.056) rotate(-86.2319)"/><polygon class="cls-33" points="1567.154 -24.84 1881.075 613.602 1377.938 620.806 1068.81 -17.665 1567.154 -24.84"/><path class="cls-10" d="M1063.35454,306.70305c-4.39562.1998-7.81472,4.40617-6.76167,18.73315.37485,5.09994,1.19846,4.64314-1.8844,11.69436-5.20981,11.916.23773,15.41849-2.8266,26.60328-3.32541,12.13775-.66508,26.71413,7.48217,31.92394,3.1748,2.03014,12.25624,1.66233,14.02576-1.74552a49.24128,49.24128,0,0,0,4.96137-21.62759c-.08737-7.15617-.1399-15.61647-3.3577-25.2333-1.13138-3.3813-5.87438-11.17145-3.99856-17.9244,2.42142-8.71709-2.9848-7.95838-2.56912-13.77785C1068.90986,308.57209,1065.18351,306.61992,1063.35454,306.70305Z"/><path class="cls-34" d="M1097.9388,244.93356c-.89367-.89368-2.5847.20134-3.32541,1.99524-5.32065,12.886,1.63042,10.20223-5.51921,23.25447-5.48438,10.01219,5.37607,18.99-1.47222,30.20958-10.41962,17.07044,7.3794,22.05048.50688,37.9016-1.38,3.183-4.57611,13.252-1.829,19.06569,4.76642,10.08708-5.87489,13.07995,5.54235,32.25648,3.504,5.88542,17.73578,13.95012,13.745,2.882-6.6915-18.55846-9.62294-35.79534-2.882-43.78457,5.98574-7.09421,3.61679-17.85123-.77593-27.04667-9.29757-19.46291-3.66912-23.97156-1.99525-30.76,3.99049-16.18366-6.81709-16.46078-2.49406-29.26361C1099.49773,255.54967,1099.71236,246.70711,1097.9388,244.93356Z"/><path class="cls-35" d="M1176.20829,559.26838c-25.06993-23.70445-42.28352-34.01232-73.02486-44.69244-13.37278-4.64595-37.80067-10.95951-49.92264-9.19851s-58.46612,4.2637-72.97928,7.33647c-24.023,5.08622-36.2945,3.61613-40.2566.93573s-17.73774-12.45517-25.23263-15.47118-43.81253-19.29031-53.67717-23.44435-23.28707-10.211-27.62852-12.10152-9.88338-5.32955-17.472-14.22312-24.69371-24.69029-31.84048-30.45541-17.82009-11.474-22.224-17.28286S736.6236,376.236,736.6236,376.236s-2.36137-5.37158,5.58772-9.05464c7.02046-3.25279,12.76934-2.025,20.31038,1.73388s25.24469,10.08185,33.1131,18.0891a82.01015,82.01015,0,0,1,5.78472,6.37474s2.61166.38788,9.59428,3.87859,19.54514,9.38615,24.03909,13.19361a96.53445,96.53445,0,0,1,7.91246,7.5454s8.63292.64624,13.59335,4.48653c2.95128.73683,3.52931-2.764,15.90308.67315,2.23448.62069,5.52413-4.4069,42.94638-4.39484,16.355.00527,22.87467.034,33.12839.14763s34.35479-3.97388,44.76629-11.3439,30.97195-15.92408,50.0546-18.16785,53.42725-3.06839,62.30918-2.10167,14.43534,1.70942,22.84716,7.94812,15.667,9.448,21.23368,11.02171,9.76153,4.00056,15.944,9.44357,228.23527,229.45,228.23527,229.45l-46.02211,137.12775S1191.37252,573.60666,1176.20829,559.26838Z"/><path class="cls-36" d="M1059.89843,467.35778c-34.17731,4.18139-58.37835.82664-77.75244,2.50728-33.01885,2.8643-32.10255,2.27551-48.97342,1.17269s-26.78506-2.21856-36.22039-4.02782-28.58113-4.2476-28.58113-4.2476,20.75489-1.11475,28.81878.71638A199.33034,199.33034,0,0,0,934.69,467.87806c14.11239.167,21.15921-.33732,44.24014-3.05691a137.81335,137.81335,0,0,1,33.31866.2527C1026.24029,466.87322,1029.56456,469.501,1059.89843,467.35778Z"/><path class="cls-37" d="M902.6468,418.56392c13.246-1.4174,15.05346,2.41865,15.702,5.96033.64843,3.54168,9.37971,30.77584,33.88524,43.662,3.24021,1.70386-41.22416-2.69688-56.31165-2.16048-15.08748.53662-27.93464-3.17836-31.40221-5.11277-5.63522-3.14364-7.5261-10.99291-7.36229-19.2835.16381-8.29081,5.34883-11.35916,8.00839-13.94345C867.62676,425.29523,880.051,420.98182,902.6468,418.56392Z"/><path class="cls-38" d="M911.36329,462.68556c-12.4632,4.70471-50.12-4.31057-51.63886-7.57513-1.51871-3.26458-6.89336-17.52726,2.22715-26.24628,6.08086-5.78,17.50775-8.11786,39.42253-10.23094,15.02733-1.449,47.52776-.52485,49.45527,7.54022,1.92756,8.06529-3.563,15.08243-5.48671,18.25276C943.56293,447.35921,932.62375,454.66,911.36329,462.68556Z"/><path class="cls-39" d="M976.69583,414.47136c9.57139-2.67108,20.9235-10.23916,30.00827-14.46863,14.28289-7.57652,41.44327-15.80367,102.21047-12.46481,5.2715.28964,15.35743,4.53857,29.55451,13.52809,7.61274,4.82035,12.218,2.84475,22.08649,10.51168,24.355,18.92168,74.69726,74.22642,109.97432,109.22637,1.91214,1.89712-56.69138,1.832-115.72428-17.015-41.70552-13.315-85.84629-43.33295-99.24016-56.40351C1027.8008,420.29107,1028.25438,403.36106,976.69583,414.47136Z"/><path class="cls-40" d="M861.52518,429.11923s3.6247-2.46173,23.18164-1.89165c8.55912.24949,11.94985,3.08037,12.7969,5.23411,1.60845,4.0897,1.91,13.78533.26737,21.3808-.49739,2.29993-5.09472,3.87763-14.79251,4.2225s-20.851-1.57019-23.15171-2.67508-5.59249-6.60992-5.31622-13.86516A16.21324,16.21324,0,0,1,861.52518,429.11923Z"/><path class="cls-41" d="M868.37693,471.75425c-18.16208-8.33315-27.9615-14.63018-38.59082-22.55877-21.22094-15.82907-43.23284-29.51564-43.23284-29.51564s9.05813,7.69118,20.2898,18.88144c11.64964,11.60681,15.67185,18.90133,21.90408,21.79526,12.24052,5.684,25.27581,12.0411,39.88,18.47121S918.59063,499.854,918.59063,499.854,886.53879,480.0872,868.37693,471.75425Z"/><path class="cls-42" d="M928.56686,506.006c10.1425,9.47742,19.08087,10.74764,25.9382,10.30877,20.78381-1.33016,50.16477-6.63273,66.06482-7.981C971.243,512.32426,946.69034,515.64967,928.56686,506.006Z"/><path class="cls-43" d="M1257.63382,663.79324c-10.26615-8.83308-31.63947-91.60077-63.23179-131.07468-11.43976-14.29373-54.75441-70.31152-108.50035-69.60278-142.2432,1.87575-142.61847,39.80171-178.66362,28.32421,35.01266,32.75646,59.94657,23.3444,59.94657,23.3444s47.30924-7.22116,88.0354-9.43829c11.31191-.61584,25.73024,3.958,62.54883,14.48444C1178.79725,537.27864,1257.63382,663.79324,1257.63382,663.79324Z"/><path class="cls-44" d="M1374.26423,702.49935,1155.906,539.60326c56.74573,56.12217,35.5542,39.88269,76.09741,89.91206,58.207,71.826,116.4703,151.58651,116.4703,151.58651Z"/><ellipse class="cls-45" cx="1033.51472" cy="434.55568" rx="47.61429" ry="47.2224" transform="translate(-6.79562 16.52972) rotate(-0.91335)"/><path class="cls-46" d="M1175.86654,457.56584c-15.02969-30.81846-38.33968-52.60268-52.015-62.878a49.29229,49.29229,0,0,0-11.14013-6.52612s7.27434.24941,20.20187,9.26958c7.30026,5.09375,10.475,6.40142,18.6223,8.72921,6.20457,1.77273,25.76741,19.78609,31.5914,25.68879,12.304,12.47029,141.27452,143.436,141.27452,143.436S1193.26589,493.2433,1175.86654,457.56584Z"/><path class="cls-47" d="M740.6108,373.57036c1.15693,1.12063,10.43393,7.92979,15.40151,15.73134,1.16191,1.82478-1.19042,3.69339-1.19042,3.69339S736.32738,376.0937,734.9092,374.72C732.439,371.89337,737.84792,370.82186,740.6108,373.57036Z"/><polygon class="cls-48" points="884.814 414.95 861.496 413.585 864.308 412.986 884.814 414.216 884.814 414.95"/><polygon class="cls-49" points="925.371 417.387 897.123 415.737 899.935 415.138 925.377 416.477 925.371 417.387"/><path class="cls-50" d="M1062.91115,310.91524c-.608-.41694-3.60253,2.07838-2.99287,9.228.36494,4.2798,1.77355,5.23753-1.8844,15.38-2.06925,5.73747-2.43863,10.53046-.83135,17.65238,2.19534,9.72762-3.99914,9.53658-2.8266,21.80915.83135,8.70149,5.4315,18.844,10.08708,19.61992,5.54544.92425,11.75218-11.66639,4.711-22.22482-3.97166-5.95561-6.92933-18.64924-5.04354-23.88753,1.99524-5.54235,2.21694-14.8535,1.21931-17.84637C1059.87771,314.22979,1065.82088,312.91049,1062.91115,310.91524Z"/><polygon class="cls-51" points="1672.237 -32.821 1513.615 629.6 1065.682 630.931 1360.979 -22.789 1672.237 -32.821"/></g></g></g></svg>